#N canvas 397 161 626 438 10;
#X obj -23 -119 tgl 15 0 render empty render 17 7 0 10 -258113 -1 -1
1 1;
#X obj -23 -89 bng 15 250 50 0 \$0-inv empty inv 17 7 0 10 -262144
-1 -1;
#X obj -23 -104 bng 15 250 50 0 \$0-nrm empty nrm 17 7 0 10 -262144
-1 -1;
#X obj 147 -119 vradio 15 1 0 3 \$0-screen_size empty empty 0 -8 0
10 -262144 -1 -1 0;
#X text 169 -122 deactivate fullscreen;
#X text 168 -105 fullscreen on screen 1;
#X text 168 -89 fullscreen on screen 2;
#X obj 56 -119 vradio 15 1 0 5 \$0-dimen empty empty 0 -8 0 10 -262144
-1 -1 0;
#X text 74 -120 640 x 480;
#X text 74 -106 1000 x 570;
#X text 74 -91 1024 x 600;
#N canvas 54 104 815 480 screen 0;
#X floatatom 84 -1 5 0 0 0 - - -;
#X msg 84 41 reset \, fullscreen \$1 \, create \, 1;
#N canvas 101 81 450 300 esc 0;
#X obj 65 20 gemkeyboard;
#X obj 65 167 outlet;
#X obj 89 71 keyname;
#X obj 128 96 sel Escape;
#X obj 65 41 sel 53;
#X obj 189 47 sel Escape;
#X obj 150 22 gemkeyname;
#X connect 0 0 4 0;
#X connect 2 1 3 0;
#X connect 3 0 1 0;
#X connect 4 0 1 0;
#X connect 5 0 1 0;
#X connect 6 1 5 0;
#X restore 397 41 pd esc;
#X obj 84 -37 r \$0-screen_size;
#X msg 310 92 create \, 1;
#X obj 413 131 loadbang;
#X obj 310 42 select 1;
#X msg 340 238 cursor 0;
#X obj 310 9 tgl 15 0 empty empty empty 17 7 0 10 -262144 -1 -1 1 1
;
#X obj 310 317 gemwin;
#X obj 310 -32 r render;
#X msg 341 266 border 0;
#X msg 401 238 border 1;
#X msg 551 234 dimen 1024 600;
#X msg 533 211 dimen 1000 570;
#X msg 510 181 dimen 640 480;
#X obj 510 111 r \$0-dimen;
#X msg 328 128 0 \, destroy;
#X obj 559 333 r \$0-dim_rectangle;
#X msg 570 257 dimen 1024 768;
#X obj 510 146 select 0 1 2 3 4;
#X msg 589 281 dimen 1280 800;
#X connect 0 0 1 0;
#X connect 1 0 9 0;
#X connect 2 0 17 0;
#X connect 3 0 0 0;
#X connect 4 0 9 0;
#X connect 5 0 7 0;
#X connect 5 0 15 0;
#X connect 6 0 4 0;
#X connect 6 1 17 0;
#X connect 7 0 9 0;
#X connect 8 0 6 0;
#X connect 10 0 8 0;
#X connect 11 0 9 0;
#X connect 12 0 9 0;
#X connect 13 0 9 0;
#X connect 14 0 9 0;
#X connect 15 0 9 0;
#X connect 16 0 20 0;
#X connect 17 0 9 0;
#X connect 18 0 9 0;
#X connect 19 0 9 0;
#X connect 20 0 15 0;
#X connect 20 1 14 0;
#X connect 20 2 13 0;
#X connect 20 3 19 0;
#X connect 20 4 21 0;
#X connect 21 0 9 0;
#X restore 124 237 pd screen;
#N canvas 151 77 864 522 type 0;
#X obj 106 298 tgl 15 0 \$0-txt_rnd empty text_random 17 7 0 10 -204800
-1 -1 1 1;
#X obj 106 208 bng 15 250 50 0 \$0-open_t empty load_typography 17
7 0 10 -262144 -1 -1;
#X obj 106 239 nbx 5 15 -1e+37 1e+37 0 1 \$0-cip01_15w \$0-cip01_15r
size 60 7 0 10 -262144 -1 -1 9 256;
#X obj 296 239 hsl 128 15 0 1 0 1 \$0-cip01_22w \$0-cip01_22r red 5
7 0 10 -258113 -1 -262144 12700 1;
#X obj 296 256 hsl 128 15 0 1 0 1 \$0-cip01_23w \$0-cip01_23r green
5 7 0 10 -4034 -1 -262144 12700 1;
#X obj 296 273 hsl 128 15 0 1 0 1 \$0-cip01_24w \$0-cip01_24r blue
5 7 0 10 -4160 -1 -262144 12700 1;
#X obj 106 332 nbx 5 15 -1e+37 1e+37 0 1 \$0-rnd_time empty time 60
7 0 10 -204800 -1 -1 4500 256;
#X obj 725 484 s \$0-type_field;
#X obj 106 281 bng 15 250 50 0 \$0-load_text empty load_text 17 7 0
10 -204800 -1 -1;
#X obj 103 103 cnv 15 250 100 empty empty write_here 20 12 0 14 -4160
-262144 0;
#X obj 372 188 nbx 5 15 -1e+37 1e+37 0 1 \$0-cip01_19w \$0-cip01_19r
rx -15 7 0 10 -262144 -1 -1 0 256;
#X obj 372 205 nbx 5 15 -1e+37 1e+37 0 1 \$0-cip01_20w \$0-cip01_20r
ry -15 7 0 10 -262144 -1 -1 0 256;
#X obj 372 222 nbx 5 15 -1e+37 1e+37 0 1 \$0-cip01_21w \$0-cip01_21r
rz -15 7 0 10 -262144 -1 -1 0 256;
#X obj 236 239 nbx 5 15 -1e+37 1e+37 0 1 \$0-cip01_16w \$0-cip01_16r
tx -15 7 0 10 -262144 -1 -1 0 256;
#X obj 236 256 nbx 5 15 -1e+37 1e+37 0 1 \$0-cip01_17w \$0-cip01_17r
ty -15 7 0 10 -262144 -1 -1 82 256;
#X obj 236 273 nbx 5 15 -1e+37 1e+37 0 1 \$0-cip01_18w \$0-cip01_18r
tz -15 7 0 10 -262144 -1 -1 1 256;
#X obj 194 239 tgl 15 1 \$0-change_size empty empty 17 7 0 10 -262144
-1 -1 0 1;
#X obj 14 336 s \$0-txt_size;
#X obj 459 374 s \$0-text_r;
#X obj 459 394 s \$0-text_g;
#X obj 459 414 s \$0-text_b;
#X obj 496 242 s \$0-text_t_x;
#X obj 497 262 s \$0-text_t_y;
#X obj 496 282 s \$0-text_t_z;
#X obj 460 307 s \$0-text_r_x;
#X obj 460 327 s \$0-text_r_y;
#X obj 460 347 s \$0-text_r_z;
#X obj 459 242 / 100;
#X obj 459 262 / 100;
#X obj 459 282 / 100;
#X obj 106 315 nbx 5 15 0 1e+37 0 1 \$0-text_lines empty lines 60 7
0 10 -204800 -1 -1 157 256;
#X obj 237 298 nbx 5 15 -1e+37 1e+37 0 1 empty empty tx -15 7 0 10
-204800 -1 -1 0 256;
#X obj 237 315 nbx 5 15 -1e+37 1e+37 0 1 empty empty ty -15 7 0 10
-204800 -1 -1 300 256;
#X obj 237 332 nbx 5 15 -1e+37 1e+37 0 1 empty empty tz -15 7 0 10
-204800 -1 -1 1 256;
#X obj 304 401 / 100;
#X obj 304 421 / 100;
#X obj 304 441 / 100;
#X obj 341 401 s \$0-text_t_x1;
#X obj 341 421 s \$0-text_t_y1;
#X obj 341 441 s \$0-text_t_z1;
#X obj 117 397 * 100;
#X obj 100 374 r \$0-rnd_y;
#X obj 717 333 makefilename %c;
#X symbolatom 107 125 40 0 0 0 - - -;
#X obj 717 291 bng 15 250 50 0 empty empty empty 17 7 0 10 -262144
-1 -1;
#X symbolatom 107 145 40 0 0 0 - - -;
#X symbolatom 592 456 20 0 0 0 - - -;
#X obj 592 433 l2s;
#X msg 717 311 10;
#X symbolatom 107 165 40 0 0 0 - - -;
#X msg 636 350 add2 \$1;
#X msg 636 374 list solo 
 una 
 vez 
;
#X obj 609 308 t b s;
#X msg 636 330 set list;
#X obj 609 288 t s b;
#X msg 725 436 text \$1;
#X obj 333 186 bng 15 250 50 0 empty empty enter -35 7 0 10 -258113
-1 -1;
#X obj 584 384 bng 15 250 50 0 empty empty empty 17 7 0 10 -262144
-1 -1;
#X obj 296 298 hsl 128 15 0 1 0 1 empty empty red 5 7 0 10 -258113
-1 -262144 8200 1;
#X obj 296 315 hsl 128 15 0 1 0 1 empty empty green 5 7 0 10 -4034
-1 -262144 0 1;
#X obj 296 332 hsl 128 15 0 1 0 1 empty empty blue 5 7 0 10 -4160 -1
-262144 3500 1;
#X obj 106 264 nbx 5 15 -1e+37 1e+37 0 1 \$0-cip01_15w \$0-cip01_15r
size 60 7 0 10 -204800 -1 -1 125 256;
#X obj 13 410 s \$0-txt_size_b;
#X obj 460 436 s \$0-text_r2;
#X obj 460 456 s \$0-text_g2;
#X obj 460 476 s \$0-text_b2;
#X obj 296 350 hsl 128 15 0 1 0 1 empty empty alpha 5 7 0 10 -262144
-258113 -1 6600 1;
#X obj 460 495 s \$0-text_a2;
#X obj 595 164 t b;
#X connect 2 0 17 0;
#X connect 3 0 18 0;
#X connect 4 0 19 0;
#X connect 5 0 20 0;
#X connect 10 0 24 0;
#X connect 11 0 25 0;
#X connect 12 0 26 0;
#X connect 13 0 27 0;
#X connect 14 0 28 0;
#X connect 15 0 29 0;
#X connect 27 0 21 0;
#X connect 28 0 22 0;
#X connect 29 0 23 0;
#X connect 31 0 34 0;
#X connect 32 0 35 0;
#X connect 33 0 36 0;
#X connect 34 0 37 0;
#X connect 35 0 38 0;
#X connect 36 0 39 0;
#X connect 40 0 32 0;
#X connect 41 0 40 0;
#X connect 42 0 50 0;
#X connect 43 0 54 0;
#X connect 44 0 48 0;
#X connect 45 0 52 0;
#X connect 46 0 7 0;
#X connect 47 0 46 0;
#X connect 48 0 42 0;
#X connect 49 0 52 0;
#X connect 49 0 68 0;
#X connect 50 0 51 0;
#X connect 51 0 47 0;
#X connect 52 0 44 0;
#X connect 52 1 50 0;
#X connect 53 0 51 0;
#X connect 54 0 52 0;
#X connect 54 1 53 0;
#X connect 55 0 7 0;
#X connect 56 0 51 0;
#X connect 57 0 47 0;
#X connect 58 0 63 0;
#X connect 59 0 64 0;
#X connect 60 0 65 0;
#X connect 61 0 62 0;
#X connect 66 0 67 0;
#X connect 68 0 56 0;
#X coords 0 -1 1 1 331 270 2 100 100;
#X restore -29 -40 pd type;
#N canvas 85 98 649 456 video 0;
#X obj 295 260 tgl 15 0 \$0-fill empty fill 17 7 0 10 -262144 -1 -1
0 1;
#X obj 295 276 tgl 15 0 \$0-smooth empty smooth 17 7 0 10 -262144 -1
-1 0 1;
#X obj 164 180 hsl 128 15 0 500 0 1 \$0-cip01_6w \$0-cip01_6r offset
5 7 0 10 -262144 -258113 -1 0 1;
#X obj 164 196 hsl 128 15 0 50 0 1 \$0-cip01_7w \$0-cip01_7r gap 5
7 0 10 -262144 -258113 -1 0 1;
#X obj 164 212 hsl 128 15 0 127 0 0 \$0-cip01_8w \$0-cip01_8r scanline_post
5 7 0 10 -262144 -258113 -1 0 1;
#X obj 161 308 hradio 15 1 0 10 \$0-cip01_14w \$0-cip01_14r gain -30
7 0 10 -262144 -1 -1 0;
#X obj 164 148 hsl 128 15 0 1 0 0 \$0-cip01_4w \$0-cip01_4r threshold
4 7 0 10 -262144 -258113 -1 0 1;
#X obj 164 164 hsl 128 15 0 127 0 0 \$0-cip01_5w \$0-cip01_5r scanline_pre
5 7 0 10 -262144 -258113 -1 12200 1;
#X obj 164 100 hsl 128 15 0 1 0 1 \$0-cip01_1w \$0-cip01_1r red 5 7
0 10 -258113 -1 -262144 0 1;
#X obj 164 116 hsl 128 15 0 1 0 1 \$0-cip01_2w \$0-cip01_2r green 5
7 0 10 -4034 -1 -262144 4800 1;
#X obj 164 132 hsl 128 15 0 1 0 1 \$0-cip01_3w \$0-cip01_3r blue 5
7 0 10 -4160 -1 -262144 0 1;
#X obj 164 228 hsl 128 15 0 99 0 0 \$0-cip01_9w \$0-cip01_9r motion_blur
5 7 0 10 -262144 -258113 -1 11800 1;
#X obj 295 244 hradio 15 1 1 4 \$0-scanline01b empty empty 0 -8 0 10
-162280 -258113 -1 0;
#X obj 295 292 hradio 15 1 1 4 \$0-scanline02b empty empty 0 -8 0 10
-162280 -258113 -1 0;
#X obj 164 260 hsl 128 15 1 -126 0 1 \$0-cip01_11w \$0-cip01_11r red
5 7 0 10 -258113 -1 -262144 700 1;
#X obj 164 276 hsl 128 15 1 -126 0 1 \$0-cip01_12w \$0-cip01_12r green
5 7 0 10 -4034 -1 -262144 1800 1;
#X obj 164 292 hsl 128 15 1 -126 0 1 \$0-cip01_13w \$0-cip01_13r blue
5 7 0 10 -4160 -1 -262144 100 1;
#X obj 164 244 hsl 128 15 1 -126 0 0 \$0-cip01_10w \$0-cip01_10r gain
5 7 0 10 -262144 -258113 -1 0 1;
#X obj 100 100 hradio 15 1 0 4 empty empty empty 0 -8 0 10 -262144
-1 -1 0;
#X obj 100 116 hradio 15 1 0 4 empty empty empty 0 -8 0 10 -262144
-1 -1 0;
#X obj 100 132 hradio 15 1 0 4 empty empty empty 0 -8 0 10 -262144
-1 -1 0;
#X obj 100 148 hradio 15 1 0 4 empty empty empty 0 -8 0 10 -262144
-1 -1 0;
#N canvas 520 206 450 300 router 0;
#X obj 77 27 inlet;
#X obj 114 27 inlet;
#X obj 152 27 inlet;
#X obj 25 27 inlet;
#X obj 62 258 outlet;
#X obj 62 115 == 1;
#X obj 99 115 == 2;
#X obj 137 115 == 3;
#X obj 62 168 *;
#X obj 99 168 *;
#X obj 137 168 *;
#X obj 62 208 +;
#X obj 62 233 +;
#X connect 0 0 8 0;
#X connect 1 0 9 0;
#X connect 2 0 10 0;
#X connect 3 0 5 0;
#X connect 3 0 6 0;
#X connect 3 0 7 0;
#X connect 5 0 8 1;
#X connect 6 0 9 1;
#X connect 7 0 10 1;
#X connect 8 0 11 0;
#X connect 9 0 11 1;
#X connect 10 0 12 1;
#X connect 11 0 12 0;
#X connect 12 0 4 0;
#X restore -141 54 pd router;
#X obj 100 164 hradio 15 1 0 4 empty empty empty 0 -8 0 10 -262144
-1 -1 0;
#X obj 100 180 hradio 15 1 0 4 empty empty empty 0 -8 0 10 -262144
-1 -1 0;
#X obj 100 196 hradio 15 1 0 4 empty empty empty 0 -8 0 10 -262144
-1 -1 0;
#X obj 100 212 hradio 15 1 0 4 empty empty empty 0 -8 0 10 -262144
-1 -1 0;
#X obj 100 228 hradio 15 1 0 4 empty empty empty 0 -8 0 10 -262144
-1 -1 0;
#X obj -78 54 / 100;
#N canvas 520 206 450 300 router 0;
#X obj 77 27 inlet;
#X obj 114 27 inlet;
#X obj 152 27 inlet;
#X obj 25 27 inlet;
#X obj 62 258 outlet;
#X obj 62 115 == 1;
#X obj 99 115 == 2;
#X obj 137 115 == 3;
#X obj 62 168 *;
#X obj 99 168 *;
#X obj 137 168 *;
#X obj 62 208 +;
#X obj 62 233 +;
#X connect 0 0 8 0;
#X connect 1 0 9 0;
#X connect 2 0 10 0;
#X connect 3 0 5 0;
#X connect 3 0 6 0;
#X connect 3 0 7 0;
#X connect 5 0 8 1;
#X connect 6 0 9 1;
#X connect 7 0 10 1;
#X connect 8 0 11 0;
#X connect 9 0 11 1;
#X connect 10 0 12 1;
#X connect 11 0 12 0;
#X connect 12 0 4 0;
#X restore -135 148 pd router;
#X obj -74 148 / 100;
#N canvas 520 206 450 300 router 0;
#X obj 77 27 inlet;
#X obj 114 27 inlet;
#X obj 152 27 inlet;
#X obj 25 27 inlet;
#X obj 62 258 outlet;
#X obj 62 115 == 1;
#X obj 99 115 == 2;
#X obj 137 115 == 3;
#X obj 62 168 *;
#X obj 99 168 *;
#X obj 137 168 *;
#X obj 62 208 +;
#X obj 62 233 +;
#X connect 0 0 8 0;
#X connect 1 0 9 0;
#X connect 2 0 10 0;
#X connect 3 0 5 0;
#X connect 3 0 6 0;
#X connect 3 0 7 0;
#X connect 5 0 8 1;
#X connect 6 0 9 1;
#X connect 7 0 10 1;
#X connect 8 0 11 0;
#X connect 9 0 11 1;
#X connect 10 0 12 1;
#X connect 11 0 12 0;
#X connect 12 0 4 0;
#X restore -141 244 pd router;
#X obj -81 244 expr $f1 / 100 * 127;
#X obj -68 289 * 5;
#N canvas 520 206 450 300 router 0;
#X obj 77 27 inlet;
#X obj 114 27 inlet;
#X obj 152 27 inlet;
#X obj 25 27 inlet;
#X obj 62 258 outlet;
#X obj 62 115 == 1;
#X obj 99 115 == 2;
#X obj 137 115 == 3;
#X obj 62 168 *;
#X obj 99 168 *;
#X obj 137 168 *;
#X obj 62 208 +;
#X obj 62 233 +;
#X connect 0 0 8 0;
#X connect 1 0 9 0;
#X connect 2 0 10 0;
#X connect 3 0 5 0;
#X connect 3 0 6 0;
#X connect 3 0 7 0;
#X connect 5 0 8 1;
#X connect 6 0 9 1;
#X connect 7 0 10 1;
#X connect 8 0 11 0;
#X connect 9 0 11 1;
#X connect 10 0 12 1;
#X connect 11 0 12 0;
#X connect 12 0 4 0;
#X restore -134 289 pd router;
#N canvas 520 206 450 300 router 0;
#X obj 77 27 inlet;
#X obj 114 27 inlet;
#X obj 152 27 inlet;
#X obj 25 27 inlet;
#X obj 62 258 outlet;
#X obj 62 115 == 1;
#X obj 99 115 == 2;
#X obj 137 115 == 3;
#X obj 62 168 *;
#X obj 99 168 *;
#X obj 137 168 *;
#X obj 62 208 +;
#X obj 62 233 +;
#X connect 0 0 8 0;
#X connect 1 0 9 0;
#X connect 2 0 10 0;
#X connect 3 0 5 0;
#X connect 3 0 6 0;
#X connect 3 0 7 0;
#X connect 5 0 8 1;
#X connect 6 0 9 1;
#X connect 7 0 10 1;
#X connect 8 0 11 0;
#X connect 9 0 11 1;
#X connect 10 0 12 1;
#X connect 11 0 12 0;
#X connect 12 0 4 0;
#X restore -130 329 pd router;
#N canvas 520 206 450 300 router 0;
#X obj 77 27 inlet;
#X obj 114 27 inlet;
#X obj 152 27 inlet;
#X obj 25 27 inlet;
#X obj 62 258 outlet;
#X obj 62 115 == 1;
#X obj 99 115 == 2;
#X obj 137 115 == 3;
#X obj 62 168 *;
#X obj 99 168 *;
#X obj 137 168 *;
#X obj 62 208 +;
#X obj 62 233 +;
#X connect 0 0 8 0;
#X connect 1 0 9 0;
#X connect 2 0 10 0;
#X connect 3 0 5 0;
#X connect 3 0 6 0;
#X connect 3 0 7 0;
#X connect 5 0 8 1;
#X connect 6 0 9 1;
#X connect 7 0 10 1;
#X connect 8 0 11 0;
#X connect 9 0 11 1;
#X connect 10 0 12 1;
#X connect 11 0 12 0;
#X connect 12 0 4 0;
#X restore -135 372 pd router;
#X obj -75 372 expr $f1 / 100 * 127;
#X obj -49 418 * 0.99;
#N canvas 520 206 450 300 router 0;
#X obj 77 27 inlet;
#X obj 114 27 inlet;
#X obj 152 27 inlet;
#X obj 25 27 inlet;
#X obj 62 258 outlet;
#X obj 62 115 == 1;
#X obj 99 115 == 2;
#X obj 137 115 == 3;
#X obj 62 168 *;
#X obj 99 168 *;
#X obj 137 168 *;
#X obj 62 208 +;
#X obj 62 233 +;
#X connect 0 0 8 0;
#X connect 1 0 9 0;
#X connect 2 0 10 0;
#X connect 3 0 5 0;
#X connect 3 0 6 0;
#X connect 3 0 7 0;
#X connect 5 0 8 1;
#X connect 6 0 9 1;
#X connect 7 0 10 1;
#X connect 8 0 11 0;
#X connect 9 0 11 1;
#X connect 10 0 12 1;
#X connect 11 0 12 0;
#X connect 12 0 4 0;
#X restore -113 418 pd router;
#X obj 295 100 nbx 5 15 -1e+37 1e+37 0 0 \$0-t_r empty empty 0 -8 0
10 -262144 -1 -1 0 256;
#X obj -79 74 t b f;
#X obj 295 116 nbx 5 15 -1e+37 1e+37 0 0 \$0-t_g empty empty 0 -8 0
10 -262144 -1 -1 0.377953 256;
#N canvas 520 206 450 300 router 0;
#X obj 77 27 inlet;
#X obj 114 27 inlet;
#X obj 152 27 inlet;
#X obj 25 27 inlet;
#X obj 62 258 outlet;
#X obj 62 115 == 1;
#X obj 99 115 == 2;
#X obj 137 115 == 3;
#X obj 62 168 *;
#X obj 99 168 *;
#X obj 137 168 *;
#X obj 62 208 +;
#X obj 62 233 +;
#X connect 0 0 8 0;
#X connect 1 0 9 0;
#X connect 2 0 10 0;
#X connect 3 0 5 0;
#X connect 3 0 6 0;
#X connect 3 0 7 0;
#X connect 5 0 8 1;
#X connect 6 0 9 1;
#X connect 7 0 10 1;
#X connect 8 0 11 0;
#X connect 9 0 11 1;
#X connect 10 0 12 1;
#X connect 11 0 12 0;
#X connect 12 0 4 0;
#X restore -139 99 pd router;
#X obj -76 99 / 100;
#X obj -81 119 t b f;
#X obj -42 74 +;
#X obj -41 119 +;
#X obj -136 168 t b f;
#X obj -92 170 +;
#N canvas 520 206 450 300 router 0;
#X obj 77 27 inlet;
#X obj 114 27 inlet;
#X obj 152 27 inlet;
#X obj 25 27 inlet;
#X obj 62 258 outlet;
#X obj 62 115 == 1;
#X obj 99 115 == 2;
#X obj 137 115 == 3;
#X obj 62 168 *;
#X obj 99 168 *;
#X obj 137 168 *;
#X obj 62 208 +;
#X obj 62 233 +;
#X connect 0 0 8 0;
#X connect 1 0 9 0;
#X connect 2 0 10 0;
#X connect 3 0 5 0;
#X connect 3 0 6 0;
#X connect 3 0 7 0;
#X connect 5 0 8 1;
#X connect 6 0 9 1;
#X connect 7 0 10 1;
#X connect 8 0 11 0;
#X connect 9 0 11 1;
#X connect 10 0 12 1;
#X connect 11 0 12 0;
#X connect 12 0 4 0;
#X restore -138 196 pd router;
#X obj -69 196 / 100;
#X obj -104 218 t b f;
#X obj -65 219 +;
#X obj 295 132 nbx 5 15 -1e+37 1e+37 0 0 \$0-t_b empty empty 0 -8 0
10 -262144 -1 -1 0 256;
#X obj 295 148 nbx 5 15 -1e+37 1e+37 0 0 \$0-pass empty empty 0 -8
0 10 -262144 -1 -1 0 256;
#X obj -81 264 t b f;
#X obj -42 265 +;
#X obj 295 164 nbx 5 15 -1e+37 1e+37 0 0 \$0-scanline01 empty empty
0 -8 0 10 -262144 -1 -1 122 256;
#X obj -110 309 t b f;
#X obj -71 309 +;
#X obj 295 180 nbx 5 15 -1e+37 1e+37 0 0 \$0-offset empty empty 0 -8
0 10 -262144 -1 -1 0 256;
#X obj -105 349 t b f;
#X obj -62 352 +;
#X obj 295 196 nbx 5 15 -1e+37 1e+37 0 0 \$0-gap empty empty 0 -8 0
10 -262144 -1 -1 0 256;
#X obj -75 393 t b f;
#X obj -36 393 +;
#X obj 295 212 nbx 5 15 -1e+37 1e+37 0 0 \$0-scanline02 empty empty
0 -8 0 10 -262144 -1 -1 0 256;
#X obj -49 444 t b f;
#X obj -10 444 +;
#X obj 295 228 nbx 5 15 -1e+37 1e+37 0 0 \$0-mblur empty empty 0 -8
0 10 -262144 -1 -1 91.9843 256;
#X obj -60 330 / 5;
#X obj 303 374 s \$0-g_r;
#X obj 316 398 s \$0-g_g;
#X obj 328 422 s \$0-g_b;
#X obj 218 430 s \$0-v_gain;
#X obj 7 15 inlet;
#X obj 63 15 inlet;
#X obj 115 15 inlet;
#X connect 2 0 60 0;
#X connect 3 0 63 0;
#X connect 4 0 66 0;
#X connect 5 0 75 0;
#X connect 6 0 53 0;
#X connect 7 0 57 0;
#X connect 8 0 46 0;
#X connect 9 0 47 0;
#X connect 10 0 49 0;
#X connect 11 0 69 0;
#X connect 14 0 72 0;
#X connect 15 0 73 0;
#X connect 16 0 74 0;
#X connect 17 0 14 0;
#X connect 17 0 15 0;
#X connect 17 0 16 0;
#X connect 18 0 22 0;
#X connect 19 0 43 0;
#X connect 20 0 29 0;
#X connect 21 0 50 0;
#X connect 22 0 28 0;
#X connect 23 0 31 0;
#X connect 24 0 34 0;
#X connect 25 0 35 0;
#X connect 26 0 36 0;
#X connect 27 0 39 0;
#X connect 28 0 41 0;
#X connect 29 0 30 0;
#X connect 30 0 48 0;
#X connect 31 0 32 0;
#X connect 32 0 56 0;
#X connect 33 0 59 0;
#X connect 34 0 33 0;
#X connect 35 0 71 0;
#X connect 36 0 37 0;
#X connect 37 0 65 0;
#X connect 38 0 68 0;
#X connect 39 0 38 0;
#X connect 41 0 8 0;
#X connect 41 1 46 1;
#X connect 43 0 44 0;
#X connect 44 0 45 0;
#X connect 45 0 9 0;
#X connect 45 1 47 1;
#X connect 46 0 40 0;
#X connect 47 0 42 0;
#X connect 48 0 10 0;
#X connect 48 1 49 1;
#X connect 49 0 54 0;
#X connect 50 0 51 0;
#X connect 51 0 52 0;
#X connect 52 0 6 0;
#X connect 52 1 53 1;
#X connect 53 0 55 0;
#X connect 56 0 7 0;
#X connect 56 1 57 1;
#X connect 57 0 58 0;
#X connect 59 0 2 0;
#X connect 59 1 60 1;
#X connect 60 0 61 0;
#X connect 62 0 3 0;
#X connect 62 1 63 1;
#X connect 63 0 64 0;
#X connect 65 0 4 0;
#X connect 65 1 66 1;
#X connect 66 0 67 0;
#X connect 68 0 11 0;
#X connect 68 1 69 1;
#X connect 69 0 70 0;
#X connect 71 0 62 0;
#X connect 76 0 22 1;
#X connect 76 0 29 1;
#X connect 76 0 31 1;
#X connect 76 0 34 1;
#X connect 76 0 35 1;
#X connect 76 0 36 1;
#X connect 76 0 39 1;
#X connect 76 0 43 1;
#X connect 76 0 50 1;
#X connect 77 0 22 2;
#X connect 77 0 29 2;
#X connect 77 0 31 2;
#X connect 77 0 34 2;
#X connect 77 0 35 2;
#X connect 77 0 36 2;
#X connect 77 0 39 2;
#X connect 77 0 43 2;
#X connect 77 0 50 2;
#X connect 78 0 22 3;
#X connect 78 0 29 3;
#X connect 78 0 31 3;
#X connect 78 0 34 3;
#X connect 78 0 35 3;
#X connect 78 0 36 3;
#X connect 78 0 39 3;
#X connect 78 0 43 3;
#X connect 78 0 50 3;
#X coords 0 -1 1 1 260 223 2 100 100;
#X restore -298 -40 pd video;
#X obj -23 -74 nbx 5 15 0 1e+37 0 1 \$0-size_f empty zoom -30 7 0 10
-262144 -1 -1 1 256;
#N canvas 25 86 980 505 text 0;
#X obj 34 380 msgfile;
#X obj 338 3 loadbang;
#X msg 48 348 goto \$1;
#X msg 34 74 read /home/oscar/Documentos/puredata-set/9.patches/0-ptch_osantis/live-set/codeispoetry/cip_map.txt
;
#X obj 48 236 bng 15 250 50 0 empty empty empty 17 7 0 10 -262144 -1
-1;
#X msg 119 290 bang;
#X obj 119 266 del 200;
#X floatatom 512 355 5 0 100 1 size - -;
#X obj 429 6 openpanel;
#X msg 481 408 alias \$1;
#X obj 481 390 tgl 15 0 empty empty empty 0 -6 0 8 -262144 -1 -1 0
1;
#X obj 688 354 translateXYZ;
#X floatatom 734 316 5 -10 10 0 - #0-text_t_y -;
#X obj 48 287 + 1;
#X floatatom 48 310 5 0 0 0 - - -;
#X msg 337 173 justify center base;
#X obj 512 334 line;
#X obj 512 312 pack 0 500;
#X obj 56 213 random 2400;
#X obj 48 184 metro 1000;
#X floatatom 119 187 5 0 0 0 - #0-rnd_time -;
#X msg 429 26 set font \$1;
#X msg 429 73 font /home/oscar/Documentos/puredata-set/9.patches/0-ptch_osantis/live-set/codeispoetry/ttf-dejavu/DejaVuSerif.ttf
;
#X obj 429 47 t b a;
#X obj 688 389 color 1 0 0;
#X floatatom 367 232 5 0 1 0 - #0-text_r2 -;
#X floatatom 376 253 5 0 1 0 - #0-text_g2 -;
#X floatatom 398 272 5 0 1 0 - #0-text_b2 -;
#X obj 48 162 r \$0-txt_rnd;
#X obj 569 267 t b s;
#X obj 569 244 r \$0-type_field;
#X obj 513 183 random 10;
#X obj 34 26 openpanel;
#X msg 34 49 set read \$1;
#X obj 34 5 r \$0-load_text;
#X obj 48 265 random 15;
#X obj 688 450 text3d;
#X obj 688 276 rotateXYZ;
#X floatatom 705 218 5 0 1 0 - #0-text_r_x -;
#X floatatom 722 237 5 0 1 0 - #0-text_r_y -;
#X floatatom 739 255 5 0 1 0 - #0-text_r_z -;
#X floatatom 711 297 5 -10 10 0 - #0-text_t_x -;
#X floatatom 757 335 5 -10 10 0 - #0-text_t_z -;
#X obj 513 205 spigot;
#X obj 513 229 t b f;
#X obj 453 256 r \$0-txt_size;
#X obj 546 162 r \$0-change_size;
#X obj 512 291 +;
#X obj 569 289 random 1000;
#X obj 376 294 t b f;
#X obj 398 313 t b f;
#X obj 230 454 text3d;
#X obj 230 351 translateXYZ;
#X floatatom 276 311 5 -10 10 0 - #0-text_t_y1 -;
#X floatatom 253 292 5 -10 10 0 - #0-text_t_x1 -;
#X floatatom 299 330 5 -10 10 0 - #0-text_t_z1 -;
#X obj 230 159 gemhead 40;
#X obj 99 242 r \$0-text_lines;
#X obj 429 -16 r \$0-open_t;
#X floatatom 122 421 5 0 0 0 - - -;
#X obj 122 398 - 4;
#X obj 121 445 s \$0-rnd_y;
#X obj 134 341 random 8;
#X obj 799 333 pack 1 2 3;
#X msg 799 355 \$1 \$2 \$3;
#X floatatom 800 232 5 0 1 0 - #0-text_r -;
#X floatatom 808 250 5 0 1 0 - #0-text_g -;
#X floatatom 830 269 5 0 1 0 - #0-text_b -;
#X obj 808 291 t b f;
#X obj 830 310 t b f;
#X obj 324 407 r \$0-txt_size_b;
#X msg 367 358 \$1 \$2 \$3 \$4;
#X obj 230 392 color 1 0 0 1;
#X obj 367 336 pack 1 2 3 4;
#X floatatom 416 295 5 0 1 0 - #0-text_a2 -;
#X obj 436 313 t b f;
#X obj 688 161 gemhead 20;
#X obj 230 424 alpha;
#X connect 0 0 51 0;
#X connect 1 0 15 0;
#X connect 1 0 22 0;
#X connect 1 0 3 0;
#X connect 2 0 0 0;
#X connect 3 0 0 0;
#X connect 4 0 6 0;
#X connect 4 0 35 0;
#X connect 4 0 62 0;
#X connect 5 0 0 0;
#X connect 5 0 31 0;
#X connect 5 0 48 0;
#X connect 6 0 5 0;
#X connect 7 0 36 1;
#X connect 8 0 21 0;
#X connect 9 0 36 0;
#X connect 9 0 51 0;
#X connect 10 0 9 0;
#X connect 11 0 24 0;
#X connect 12 0 11 2;
#X connect 13 0 14 0;
#X connect 14 0 2 0;
#X connect 15 0 36 0;
#X connect 15 0 51 0;
#X connect 16 0 7 0;
#X connect 17 0 16 0;
#X connect 18 0 19 1;
#X connect 19 0 4 0;
#X connect 19 0 18 0;
#X connect 20 0 18 1;
#X connect 21 0 23 0;
#X connect 22 0 36 0;
#X connect 22 0 51 0;
#X connect 23 0 22 0;
#X connect 23 1 22 0;
#X connect 24 0 36 0;
#X connect 25 0 73 0;
#X connect 26 0 49 0;
#X connect 27 0 50 0;
#X connect 28 0 19 0;
#X connect 29 0 31 0;
#X connect 29 0 48 0;
#X connect 29 1 36 0;
#X connect 30 0 29 0;
#X connect 31 0 43 0;
#X connect 32 0 33 0;
#X connect 33 0 3 0;
#X connect 34 0 32 0;
#X connect 35 0 13 0;
#X connect 37 0 11 0;
#X connect 38 0 37 1;
#X connect 39 0 37 2;
#X connect 40 0 37 3;
#X connect 41 0 11 1;
#X connect 42 0 11 3;
#X connect 43 0 44 0;
#X connect 44 0 47 0;
#X connect 44 1 47 1;
#X connect 45 0 47 0;
#X connect 46 0 43 1;
#X connect 47 0 17 0;
#X connect 48 0 17 1;
#X connect 49 0 73 0;
#X connect 49 1 73 1;
#X connect 50 0 73 0;
#X connect 50 1 73 2;
#X connect 52 0 72 0;
#X connect 53 0 52 2;
#X connect 54 0 52 1;
#X connect 55 0 52 3;
#X connect 56 0 52 0;
#X connect 57 0 35 1;
#X connect 58 0 8 0;
#X connect 59 0 61 0;
#X connect 60 0 59 0;
#X connect 62 0 60 0;
#X connect 63 0 64 0;
#X connect 64 0 24 1;
#X connect 65 0 63 0;
#X connect 66 0 68 0;
#X connect 67 0 69 0;
#X connect 68 0 63 0;
#X connect 68 1 63 1;
#X connect 69 0 63 0;
#X connect 69 1 63 2;
#X connect 70 0 51 1;
#X connect 71 0 72 1;
#X connect 72 0 77 0;
#X connect 73 0 71 0;
#X connect 74 0 75 0;
#X connect 75 0 73 0;
#X connect 75 1 73 3;
#X connect 76 0 37 0;
#X connect 77 0 51 0;
#X restore 74 237 pd text;
#N canvas 75 77 787 520 video 0;
#X obj -350 382 pix_scanline;
#X obj -350 557 pix_gain;
#X floatatom -328 534 5 0 0 0 - - -;
#X obj -350 292 pix_lumaoffset;
#X msg -281 188 smooth \$1;
#X msg -339 189 fill \$1;
#X msg -281 188 smooth \$1;
#X obj -350 -6 gemhead 10;
#X obj -65 117 loadbang;
#X obj -350 -30 tgl 15 0 empty empty empty 17 7 0 10 -262144 -1 -1
0 1;
#X msg -161 217 1;
#X msg -82 241 253;
#X msg -98 218 249;
#X msg -66 218 238;
#X msg -34 218 186;
#X msg -19 240 128;
#X msg -50 240 130;
#X msg -146 241 -1;
#X msg -130 218 -2;
#X obj -161 163 + 1;
#X obj -161 188 select 1 2 3 4 5 6 7 8 9 10;
#X msg -114 241 5;
#X obj -175 545 scaleXYZ;
#X obj -175 424 pix_texture;
#X obj -55 338 nbx 5 14 -1e+37 1e+37 0 1 empty empty empty 0 -6 0 10
-262144 -1 -1 55 256;
#X obj -145 503 nbx 5 14 -1e+37 1e+37 0 1 empty empty empty 0 -6 0
10 -262144 -1 -1 40 256;
#X obj -160 483 * 0.1;
#X obj -145 522 * 0.1;
#X obj -175 575 rectangle;
#X msg -175 399 quality \$1;
#X obj -175 374 tgl 15 1 empty empty empty 0 -6 0 8 -262144 -1 -1 1
1;
#X obj -350 32 pix_video;
#X msg 82 339 -1;
#X msg 9 337 1;
#X obj -55 362 * 1;
#X msg -55 304 55;
#X msg -145 448 40;
#X obj 78 312 t b b;
#X obj 9 313 t b b;
#X obj -350 318 pix_motionblur;
#X obj -241 293 / 100;
#X msg 119 471 set dimen \$1 \$2;
#X msg 119 497 dimen 2560 1920;
#X obj 119 443 pack f f;
#X floatatom -19 424 5 0 0 0 - - -;
#X floatatom -19 484 5 0 0 0 - - -;
#X obj -19 458 * 640;
#X floatatom 25 484 5 0 0 0 - - -;
#X obj 25 458 * 480;
#X obj -350 81 pix_threshold;
#X msg -243 35 set \$1 \$2 \$3;
#X msg -243 57 0 0.377953 0;
#X obj -243 11 pack \$1 \$2 \$3;
#X floatatom -92 12 5 0 0 0 - - -;
#X floatatom -55 12 5 0 0 0 - - -;
#X floatatom -19 12 5 0 0 0 - - -;
#X obj -178 72 bng 15 250 50 0 empty empty empty 17 7 0 10 -262144
-1 -1;
#X obj -31 61 bng 15 250 50 0 empty empty empty 17 7 0 10 -262144 -1
-1;
#X obj -350 145 pix_scanline;
#X obj 37 527 t b;
#X floatatom -72 472 5 0 0 0 - #0-size_f -;
#X floatatom -72 532 5 0 0 0 - - -;
#X floatatom -28 532 5 0 0 0 - - -;
#X obj -72 506 * 55;
#X obj -28 506 * 40;
#X obj -317 124 *;
#X obj -251 142 t b f;
#X obj -214 122 + 1;
#X obj -324 358 *;
#X obj -258 376 t b f;
#X obj -221 356 + 1;
#X obj -277 518 pack \$1 \$2 \$3;
#X msg -277 538 set \$1 \$2 \$3;
#X msg -277 559 -6 -17 0;
#X obj -215 479 t b f;
#X obj -254 479 t b f;
#X obj -188 517 b;
#X obj 119 528 s \$0-dim_rectangle;
#X obj -243 -28 r \$0-t_r;
#X obj -177 -28 r \$0-t_g;
#X obj -115 -28 r \$0-t_b;
#X obj -313 58 r \$0-pass;
#X obj -317 100 r \$0-scanline01;
#X obj -214 102 r \$0-scanline01b;
#X obj -161 127 r \$0-v_gain;
#X obj -281 166 r \$0-smooth;
#X obj -339 167 r \$0-fill;
#X obj -308 238 r \$0-offset;
#X obj -229 235 r \$0-gap;
#X obj -241 270 r \$0-mblur;
#X obj -323 338 r \$0-scanline02;
#X obj -221 336 r \$0-scanline02b;
#X obj 9 285 r \$0-nrm;
#X obj 76 286 r \$0-inv;
#X obj -318 428 r \$0-g_r;
#X obj -284 451 r \$0-g_g;
#X obj -215 451 r \$0-g_b;
#X connect 0 0 1 0;
#X connect 1 0 23 0;
#X connect 2 0 1 1;
#X connect 3 0 39 0;
#X connect 4 0 3 0;
#X connect 5 0 3 0;
#X connect 6 0 3 0;
#X connect 7 0 31 0;
#X connect 8 0 35 0;
#X connect 8 0 36 0;
#X connect 9 0 7 0;
#X connect 10 0 2 0;
#X connect 11 0 2 0;
#X connect 12 0 2 0;
#X connect 13 0 2 0;
#X connect 14 0 2 0;
#X connect 15 0 2 0;
#X connect 16 0 2 0;
#X connect 17 0 2 0;
#X connect 18 0 2 0;
#X connect 19 0 20 0;
#X connect 20 0 10 0;
#X connect 20 1 17 0;
#X connect 20 2 18 0;
#X connect 20 3 21 0;
#X connect 20 4 12 0;
#X connect 20 5 11 0;
#X connect 20 6 13 0;
#X connect 20 7 16 0;
#X connect 20 8 14 0;
#X connect 20 9 15 0;
#X connect 21 0 2 0;
#X connect 22 0 28 0;
#X connect 23 0 22 0;
#X connect 24 0 34 0;
#X connect 25 0 27 0;
#X connect 26 0 22 1;
#X connect 27 0 22 2;
#X connect 29 0 23 0;
#X connect 30 0 29 0;
#X connect 31 0 49 0;
#X connect 32 0 34 1;
#X connect 33 0 34 1;
#X connect 34 0 26 0;
#X connect 35 0 24 0;
#X connect 36 0 25 0;
#X connect 37 0 35 0;
#X connect 37 1 32 0;
#X connect 38 0 35 0;
#X connect 38 1 33 0;
#X connect 39 0 0 0;
#X connect 40 0 39 1;
#X connect 41 0 42 0;
#X connect 42 0 77 0;
#X connect 43 0 41 0;
#X connect 44 0 46 0;
#X connect 44 0 48 0;
#X connect 45 0 43 0;
#X connect 46 0 45 0;
#X connect 47 0 43 1;
#X connect 47 0 59 0;
#X connect 48 0 47 0;
#X connect 49 0 58 0;
#X connect 50 0 51 0;
#X connect 51 0 49 2;
#X connect 52 0 50 0;
#X connect 53 0 52 0;
#X connect 53 0 56 0;
#X connect 54 0 57 0;
#X connect 54 0 52 1;
#X connect 55 0 57 0;
#X connect 55 0 52 2;
#X connect 56 0 51 0;
#X connect 57 0 53 0;
#X connect 58 0 3 0;
#X connect 59 0 43 0;
#X connect 60 0 63 0;
#X connect 60 0 64 0;
#X connect 61 0 24 0;
#X connect 62 0 25 0;
#X connect 63 0 61 0;
#X connect 64 0 62 0;
#X connect 65 0 58 1;
#X connect 66 0 65 0;
#X connect 66 1 65 1;
#X connect 67 0 66 0;
#X connect 68 0 0 1;
#X connect 69 0 68 0;
#X connect 69 1 68 1;
#X connect 70 0 69 0;
#X connect 71 0 72 0;
#X connect 72 0 73 0;
#X connect 72 0 76 0;
#X connect 73 0 1 2;
#X connect 74 0 71 0;
#X connect 74 1 71 2;
#X connect 75 0 71 0;
#X connect 75 1 71 1;
#X connect 76 0 73 0;
#X connect 78 0 53 0;
#X connect 79 0 54 0;
#X connect 80 0 55 0;
#X connect 81 0 49 1;
#X connect 82 0 65 0;
#X connect 83 0 67 0;
#X connect 84 0 19 0;
#X connect 85 0 4 0;
#X connect 86 0 5 0;
#X connect 87 0 3 1;
#X connect 88 0 3 2;
#X connect 89 0 40 0;
#X connect 90 0 68 0;
#X connect 91 0 70 0;
#X connect 92 0 38 0;
#X connect 93 0 37 0;
#X connect 94 0 71 0;
#X connect 95 0 75 0;
#X connect 96 0 74 0;
#X restore -25 236 pd video filter;
#X text 74 -76 1024 x 768;
#N canvas 355 100 666 498 snap 0;
#X obj 100 100 bng 15 250 50 0 empty empty 1 4 7 0 10 -62784 -258699
-262144;
#X msg 268 269 1;
#X obj 115 100 bng 15 250 50 0 empty empty 2 4 7 0 10 -62784 -258699
-262144;
#X msg 299 269 2;
#X obj 130 100 bng 15 250 50 0 empty empty 3 4 7 0 10 -62784 -258699
-262144;
#X obj 145 100 bng 15 250 50 0 empty empty 4 4 7 0 10 -62784 -258699
-262144;
#X msg 330 269 3;
#X msg 359 269 4;
#X obj 100 115 bng 15 250 50 0 empty empty 5 4 7 0 10 -62784 -258699
-262144;
#X obj 115 115 bng 15 250 50 0 empty empty 6 4 7 0 10 -62784 -258699
-262144;
#X obj 130 115 bng 15 250 50 0 empty empty 7 4 7 0 10 -62784 -258699
-262144;
#X obj 145 115 bng 15 250 50 0 empty empty 8 4 7 0 10 -62784 -258699
-262144;
#X msg 301 292 5;
#X msg 332 292 6;
#X msg 361 292 7;
#X msg 392 292 8;
#X obj 100 130 bng 15 250 50 0 empty empty 9 4 7 0 10 -62784 -258699
-262144;
#X obj 115 130 bng 15 250 50 0 empty empty 10 1 7 0 10 -62784 -258699
-262144;
#X obj 130 130 bng 15 250 50 0 empty empty 11 1 7 0 10 -62784 -258699
-262144;
#X obj 145 130 bng 15 250 50 0 empty empty 12 1 7 0 10 -62784 -258699
-262144;
#X obj 100 145 bng 15 250 50 0 empty empty 13 1 7 0 10 -62784 -258699
-262144;
#X obj 115 145 bng 15 250 50 0 empty empty 14 1 7 0 10 -62784 -258699
-262144;
#X obj 130 145 bng 15 250 50 0 empty empty 15 1 7 0 10 -62784 -258699
-262144;
#X obj 145 145 bng 15 250 50 0 empty empty 16 1 7 0 10 -62784 -258699
-262144;
#X msg 268 314 9;
#X msg 299 314 10;
#X msg 330 314 11;
#X msg 359 314 12;
#X msg 301 337 13;
#X msg 332 337 14;
#X msg 361 337 15;
#X msg 392 337 16;
#X obj 100 160 nbx 2 15 1 16 0 1 empty empty empty 3 -7 0 10 -204800
-1 -1 1 256;
#X obj 132 160 nbx 2 15 1 16 0 0 empty empty empty 0 -8 0 10 -261234
-1 -1 1 256;
#X obj 160 160 bng 15 250 50 0 empty empty empty 17 7 0 10 -258113
-1 -1;
#N canvas 590 215 400 271 snap_sam 0;
#X obj 95 -21 inlet;
#X obj 177 -23 inlet;
#X obj 277 -24 inlet;
#N canvas 523 79 611 520 read_snap-s1 0;
#X obj 68 1 inlet;
#X obj 68 100 f;
#X obj 68 152 t f f f;
#X obj 36 74 + 1;
#X obj 108 184 +;
#X obj 68 53 t b f;
#X obj 87 243 pack;
#X msg 68 75 0;
#X obj 87 269 route 0 1 2 3 4 5 6 7 8 9 10 11 12 13 14 15 16 17 18
19 20 21 22 23;
#X obj 68 127 moses 24;
#X obj 108 210 tabread \$0-settings_cip01;
#X obj 87 309 s \$0-cip01_1r;
#X obj 97 330 s \$0-cip01_2r;
#X obj 68 27 * 24;
#X obj 107 351 s \$0-cip01_3r;
#X obj 118 373 s \$0-cip01_4r;
#X obj 127 398 s \$0-cip01_5r;
#X obj 137 419 s \$0-cip01_6r;
#X obj 147 440 s \$0-cip01_7r;
#X obj 157 462 s \$0-cip01_8r;
#X obj 240 462 s \$0-cip01_16r;
#X obj 230 440 s \$0-cip01_15r;
#X obj 220 419 s \$0-cip1_14r;
#X obj 210 398 s \$0-cip01_13r;
#X obj 201 373 s \$0-cip01_12r;
#X obj 190 351 s \$0-cip01_11r;
#X obj 180 330 s \$0-cip01_10r;
#X obj 170 309 s \$0-cip01_9r;
#X obj 258 309 s \$0-cip01_17r;
#X obj 268 330 s \$0-cip01_18r;
#X obj 278 351 s \$0-cip01_19r;
#X obj 289 373 s \$0-cip01_20r;
#X obj 298 398 s \$0-cip01_21r;
#X obj 308 419 s \$0-cip01_22r;
#X obj 318 440 s \$0-cip01_23r;
#X obj 329 460 s \$0-cip01_24r;
#X connect 0 0 13 0;
#X connect 1 0 9 0;
#X connect 2 0 3 0;
#X connect 2 1 6 0;
#X connect 2 2 4 0;
#X connect 3 0 1 0;
#X connect 4 0 10 0;
#X connect 5 0 7 0;
#X connect 5 1 4 1;
#X connect 6 0 8 0;
#X connect 7 0 1 0;
#X connect 8 0 11 0;
#X connect 8 1 12 0;
#X connect 8 2 14 0;
#X connect 8 3 15 0;
#X connect 8 4 16 0;
#X connect 8 5 17 0;
#X connect 8 6 18 0;
#X connect 8 7 19 0;
#X connect 8 8 27 0;
#X connect 8 9 26 0;
#X connect 8 10 25 0;
#X connect 8 11 24 0;
#X connect 8 12 23 0;
#X connect 8 13 22 0;
#X connect 8 14 21 0;
#X connect 8 15 20 0;
#X connect 8 16 28 0;
#X connect 8 17 29 0;
#X connect 8 18 30 0;
#X connect 8 19 31 0;
#X connect 8 20 32 0;
#X connect 8 21 33 0;
#X connect 8 22 34 0;
#X connect 8 23 35 0;
#X connect 9 0 2 0;
#X connect 10 0 6 1;
#X connect 13 0 5 0;
#X restore 95 45 pd read_snap-s1;
#N canvas 1 77 1007 522 write_snap-s1 0;
#X obj 56 49 f;
#X obj 56 75 t f b;
#X obj 203 612 +;
#X msg 83 98 0;
#X obj 898 43 inlet;
#X obj 942 43 inlet;
#X obj 942 74 t b b;
#X obj 63 148 f;
#X obj 63 174 t f b;
#X msg 90 197 1;
#X obj 72 246 f;
#X obj 72 272 t f b;
#X msg 99 295 2;
#X obj 81 343 f;
#X obj 81 369 t f b;
#X msg 108 392 3;
#X obj 141 49 f;
#X obj 141 75 t f b;
#X obj 148 148 f;
#X obj 148 174 t f b;
#X obj 157 246 f;
#X obj 157 272 t f b;
#X obj 166 343 f;
#X obj 166 369 t f b;
#X msg 168 98 4;
#X msg 175 197 5;
#X msg 184 295 6;
#X msg 193 392 7;
#X obj 225 49 f;
#X obj 225 75 t f b;
#X obj 232 148 f;
#X obj 232 174 t f b;
#X obj 241 246 f;
#X obj 241 272 t f b;
#X obj 250 343 f;
#X obj 250 369 t f b;
#X msg 252 98 8;
#X msg 259 197 9;
#X msg 268 295 10;
#X msg 277 392 11;
#X obj 310 49 f;
#X obj 310 75 t f b;
#X obj 322 148 f;
#X obj 322 174 t f b;
#X obj 331 246 f;
#X obj 331 272 t f b;
#X obj 340 343 f;
#X obj 340 369 t f b;
#X msg 337 98 12;
#X msg 349 197 13;
#X msg 358 295 14;
#X msg 367 392 15;
#X obj 399 49 f;
#X obj 399 75 t f b;
#X obj 411 148 f;
#X obj 411 174 t f b;
#X obj 420 246 f;
#X obj 420 272 t f b;
#X obj 429 343 f;
#X obj 429 369 t f b;
#X msg 426 98 16;
#X msg 438 197 17;
#X msg 447 295 18;
#X msg 456 392 19;
#X obj 492 49 f;
#X obj 492 75 t f b;
#X obj 504 148 f;
#X obj 504 174 t f b;
#X obj 513 249 f;
#X obj 513 272 t f b;
#X msg 519 98 20;
#X msg 531 197 21;
#X msg 540 295 22;
#X obj 523 344 f;
#X obj 523 366 t f b;
#X msg 550 388 23;
#X obj 349 581 * 24;
#X obj 56 645 tabwrite \$0-settings_cip01;
#X obj 523 318 r \$0-cip01_24w;
#X obj 429 317 r \$0-cip01_20w;
#X obj 340 317 r \$0-cip01_16w;
#X obj 250 317 r \$0-cip01_12w;
#X obj 166 317 r \$0-cip01_8w;
#X obj 81 317 r \$0-cip01_4w;
#X obj 72 220 r \$0-cip01_3w;
#X obj 157 220 r \$0-cip01_7w;
#X obj 241 220 r \$0-cip01_11w;
#X obj 331 220 r \$0-cip01_15w;
#X obj 420 220 r \$0-cip01_19w;
#X obj 512 220 r \$0-cip01_23w;
#X obj 63 122 r \$0-cip01_2w;
#X obj 148 122 r \$0-cip01_6w;
#X obj 232 122 r \$0-cip01_10w;
#X obj 322 122 r \$0-cip01_14w;
#X obj 411 122 r \$0-cip01_18w;
#X obj 504 122 r \$0-cip01_22w;
#X obj 492 23 r \$0-cip01_21w;
#X obj 399 23 r \$0-cip01_17w;
#X obj 310 23 r \$0-cip01_13w;
#X obj 225 23 r \$0-cip01_9w;
#X obj 141 23 r \$0-cip01_5w;
#X obj 56 23 r \$0-cip01_1w;
#X connect 0 0 1 0;
#X connect 1 0 77 0;
#X connect 1 1 3 0;
#X connect 2 0 77 1;
#X connect 3 0 2 0;
#X connect 4 0 76 0;
#X connect 5 0 6 0;
#X connect 6 1 0 0;
#X connect 6 1 7 0;
#X connect 6 1 10 0;
#X connect 6 1 13 0;
#X connect 6 1 16 0;
#X connect 6 1 18 0;
#X connect 6 1 20 0;
#X connect 6 1 22 0;
#X connect 6 1 28 0;
#X connect 6 1 40 0;
#X connect 6 1 30 0;
#X connect 6 1 42 0;
#X connect 6 1 32 0;
#X connect 6 1 44 0;
#X connect 6 1 34 0;
#X connect 6 1 46 0;
#X connect 6 1 52 0;
#X connect 6 1 54 0;
#X connect 6 1 56 0;
#X connect 6 1 58 0;
#X connect 6 1 68 0;
#X connect 6 1 66 0;
#X connect 6 1 64 0;
#X connect 6 1 73 0;
#X connect 7 0 8 0;
#X connect 8 0 77 0;
#X connect 8 1 9 0;
#X connect 9 0 2 0;
#X connect 10 0 11 0;
#X connect 11 0 77 0;
#X connect 11 1 12 0;
#X connect 12 0 2 0;
#X connect 13 0 14 0;
#X connect 14 0 77 0;
#X connect 14 1 15 0;
#X connect 15 0 2 0;
#X connect 16 0 17 0;
#X connect 17 0 77 0;
#X connect 17 1 24 0;
#X connect 18 0 19 0;
#X connect 19 0 77 0;
#X connect 19 1 25 0;
#X connect 20 0 21 0;
#X connect 21 0 77 0;
#X connect 21 1 26 0;
#X connect 22 0 23 0;
#X connect 23 0 77 0;
#X connect 23 1 27 0;
#X connect 24 0 2 0;
#X connect 25 0 2 0;
#X connect 26 0 2 0;
#X connect 27 0 2 0;
#X connect 28 0 29 0;
#X connect 29 0 77 0;
#X connect 29 1 36 0;
#X connect 30 0 31 0;
#X connect 31 0 77 0;
#X connect 31 1 37 0;
#X connect 32 0 33 0;
#X connect 33 0 77 0;
#X connect 33 1 38 0;
#X connect 34 0 35 0;
#X connect 35 0 77 0;
#X connect 35 1 39 0;
#X connect 36 0 2 0;
#X connect 37 0 2 0;
#X connect 38 0 2 0;
#X connect 39 0 2 0;
#X connect 40 0 41 0;
#X connect 41 0 77 0;
#X connect 41 1 48 0;
#X connect 42 0 43 0;
#X connect 43 0 77 0;
#X connect 43 1 49 0;
#X connect 44 0 45 0;
#X connect 45 0 77 0;
#X connect 45 1 50 0;
#X connect 46 0 47 0;
#X connect 47 0 77 0;
#X connect 47 1 51 0;
#X connect 48 0 2 0;
#X connect 49 0 2 0;
#X connect 50 0 2 0;
#X connect 51 0 2 0;
#X connect 52 0 53 0;
#X connect 53 0 77 0;
#X connect 53 1 60 0;
#X connect 54 0 55 0;
#X connect 55 0 77 0;
#X connect 55 1 61 0;
#X connect 56 0 57 0;
#X connect 57 0 77 0;
#X connect 57 1 62 0;
#X connect 58 0 59 0;
#X connect 59 0 77 0;
#X connect 59 1 63 0;
#X connect 60 0 2 0;
#X connect 61 0 2 0;
#X connect 62 0 2 0;
#X connect 63 0 2 0;
#X connect 64 0 65 0;
#X connect 65 0 77 0;
#X connect 65 1 70 0;
#X connect 66 0 67 0;
#X connect 67 0 77 0;
#X connect 67 1 71 0;
#X connect 68 0 69 0;
#X connect 69 0 77 0;
#X connect 69 1 72 0;
#X connect 70 0 2 0;
#X connect 71 0 2 0;
#X connect 72 0 2 0;
#X connect 73 0 74 0;
#X connect 74 0 77 0;
#X connect 74 1 75 0;
#X connect 75 0 2 0;
#X connect 76 0 2 1;
#X connect 78 0 73 1;
#X connect 79 0 58 1;
#X connect 80 0 46 1;
#X connect 81 0 34 1;
#X connect 82 0 22 1;
#X connect 83 0 13 1;
#X connect 84 0 10 1;
#X connect 85 0 20 1;
#X connect 86 0 32 1;
#X connect 87 0 44 1;
#X connect 88 0 56 1;
#X connect 89 0 68 1;
#X connect 90 0 7 1;
#X connect 91 0 18 1;
#X connect 92 0 30 1;
#X connect 93 0 42 1;
#X connect 94 0 54 1;
#X connect 95 0 66 1;
#X connect 96 0 64 1;
#X connect 97 0 52 1;
#X connect 98 0 40 1;
#X connect 99 0 28 1;
#X connect 100 0 16 1;
#X connect 101 0 0 1;
#X restore 95 71 pd write_snap-s1;
#N canvas 139 184 450 300 (subpatch) 0;
#X array \$0-settings_cip01 1000 float 1;
#A 0 0 0 0 0 0 0 0 0 0 0 0 0 0 0 0 0 0 0 0 0 0 0 0 0 0 0.377953 0 0
122 0 0 0 0 1 -6 -17 0 4 9 0 82 1 0 0 0 1 1 1 0.535433 0.0551181 0.11811
0 0 0 0 127 82.6299 1 -16 1 -96 0 9 0 82 0 0 0 0 0 0 0 0 0 0 0 11 133.858
0.787402 0 84.189 -23 -23 -11 -6 0 9 0 82 1 0 0 0 1 1 1 0 0 0 0.251969
0 0 5.51181 0 84.189 -1 -1 -1 -1 0 9 0 82 1 0 0 0 1 1 1 0 0 0 0 0 500
3.14961 0 0 1 1 -32 -14 0 9 0 82 1 0 0 0 1 1 1 0 0.433071 0.125984
0.251969 0 0 3.14961 0 0 -14 -14 -14 -14 4 9 0 82 1 0 0 0 1 1 1 0 0
0 0 0 0 0 0 0 1 -44 -1 1 0 8 0 82 1 0 0 0 0 0 0 0 0 0 0 0 0 0 0 0 0
0 0 0 0 0 0 0 0 0 0 0 0 0 0 0 0 0 0 0 0 0 0 0 0 0 0 0 0 0 0 0 0 0 0
0 0 0 0 0 0 0 0 0 0 0 0 0 0 0 0 0 0 0 0 0 0 0 0 0 0 0 0 0 0 0 0 0 0
0 0 0 0 0 0 0 0 0 0 0 0 0 0 0 0 0 0 0 0 0 0 0 0 0 0 0 0 0 0 0 0 0 0
0 0 0 0 0 0 0 0 0 0 0 0 0 0 0 0 0 0 0 0 0 0 0 0 0 0 0 0 0 0 0 0 0 0
0 0 0 0 0 0 0 0 0 0 0 0 0 0 0 0 0 0 0 0 0 0 0 0 0 0 0 0 0 0 0 0 0 0
0 0 0 0 0 0 0 0 0 0 0 0 0 0 0 0 0 0 0 0 0 0 0 0 0 0 0 0 0 0 0 0 0 0
0 0 0 0 0 0 0 0 0 0 0 0 0 0 0 0 0 0 0 0 0 0 0 0 0 0 0 0 0 0 0 0 0 0
0 0 0 0 0 0 0 0 0 0 0 0 0 0 0 0 0 0 0 0 0 0 0 0 0 0 0 0 0 0 0 0 0 0
0 0 0 0 0 0 0 0 0 0 0 0 0 0 0 0 0 0 0 0 0 0 0 0 0 0 0 0 0 0 0 0 0 0
0 0 0 0 0 0 0 0 0 0 0 0 0 0 0 0 0 0 0 0 0 0 0 0 0 0 0 0 0 0 0 0 0 0
0 0 0 0 0 0 0 0 0 0 0 0 0 0 0 0 0 0 0 0 0 0 0 0 0 0 0 0 0 0 0 0 0 0
0 0 0 0 0 0 0 0 0 0 0 0 0 0 0 0 0 0 0 0 0 0 0 0 0 0 0 0 0 0 0 0 0 0
0 0 0 0 0 0 0 0 0 0 0 0 0 0 0 0 0 0 0 0 0 0 0 0 0 0 0 0 0 0 0 0 0 0
0 0 0 0 0 0 0 0 0 0 0 0 0 0 0 0 0 0 0 0 0 0 0 0 0 0 0 0 0 0 0 0 0 0
0 0 0 0 0 0 0 0 0 0 0 0 0 0 0 0 0 0 0 0 0 0 0 0 0 0 0 0 0 0 0 0 0 0
0 0 0 0 0 0 0 0 0 0 0 0 0 0 0 0 0 0 0 0 0 0 0 0 0 0 0 0 0 0 0 0 0 0
0 0 0 0 0 0 0 0 0 0 0 0 0 0 0 0 0 0 0 0 0 0 0 0 0 0 0 0 0 0 0 0 0 0
0 0 0 0 0 0 0 0 0 0 0 0 0 0 0 0 0 0 0 0 0 0 0 0 0 0 0 0 0 0 0 0 0 0
0 0 0 0 0 0 0 0 0 0 0 0 0 0 0 0 0 0 0 0 0 0 0 0 0 0 0 0 0 0 0 0 0 0
0 0 0 0 0 0 0 0 0 0 0 0 0 0 0 0 0 0 0 0 0 0 0 0 0 0 0 0 0 0 0 0 0 0
0 0 0 0 0 0 0 0 0 0 0 0 0 0 0 0 0 0 0 0 0 0 0 0 0 0 0 0 0 0 0 0 0 0
0 0 0 0 0 0 0 0 0 0 0 0 0 0 0 0 0 0 0 0 0 0 0 0 0 0 0 0 0 0 0 0 0 0
0 0 0 0 0 0 0 0 0 0 0 0 0 0 0 0 0 0 0 0 0 0 0 0 0 0 0 0 0 0 0 0 0 0
0 0 0 0 0 0 0 0 0 0 0 0 0 0 0 0;
#X coords 0 300 1 299 200 140 0;
#X restore 104 128 graph;
#X connect 0 0 3 0;
#X connect 1 0 4 0;
#X connect 2 0 4 1;
#X restore 151 354 pd snap_sam;
#X obj 331 122 pack 0 0 0;
#X obj 331 94 f;
#X msg 308 44 bang;
#X floatatom 347 44 3 0 29 0 - - -;
#X floatatom 363 64 3 0 29 0 - - -;
#X floatatom 396 80 3 0 29 0 - - -;
#X text 375 44 background;
#X text 390 64 front-color;
#X text 424 81 label-color;
#X msg 331 143 color \$1 \$2 \$3;
#X obj 488 246 s \$0-settings_cip01;
#X msg 488 221 const \$1;
#X floatatom 488 197 5 0 0 0 - - -;
#X connect 0 0 1 0;
#X connect 1 0 32 0;
#X connect 2 0 3 0;
#X connect 3 0 32 0;
#X connect 4 0 6 0;
#X connect 5 0 7 0;
#X connect 6 0 32 0;
#X connect 7 0 32 0;
#X connect 8 0 12 0;
#X connect 9 0 13 0;
#X connect 10 0 14 0;
#X connect 11 0 15 0;
#X connect 12 0 32 0;
#X connect 13 0 32 0;
#X connect 14 0 32 0;
#X connect 15 0 32 0;
#X connect 16 0 24 0;
#X connect 17 0 25 0;
#X connect 18 0 26 0;
#X connect 19 0 27 0;
#X connect 20 0 28 0;
#X connect 21 0 29 0;
#X connect 22 0 30 0;
#X connect 23 0 31 0;
#X connect 24 0 32 0;
#X connect 25 0 32 0;
#X connect 26 0 32 0;
#X connect 27 0 32 0;
#X connect 28 0 32 0;
#X connect 29 0 32 0;
#X connect 30 0 32 0;
#X connect 31 0 32 0;
#X connect 32 0 33 0;
#X connect 32 0 35 0;
#X connect 33 0 35 1;
#X connect 34 0 35 2;
#X connect 36 0 45 0;
#X connect 37 0 36 0;
#X connect 38 0 37 0;
#X connect 39 0 37 1;
#X connect 39 0 38 0;
#X connect 40 0 36 1;
#X connect 41 0 36 2;
#X connect 45 0 0 0;
#X connect 45 0 2 0;
#X connect 45 0 4 0;
#X connect 45 0 5 0;
#X connect 45 0 8 0;
#X connect 45 0 9 0;
#X connect 45 0 10 0;
#X connect 45 0 11 0;
#X connect 45 0 16 0;
#X connect 45 0 17 0;
#X connect 45 0 18 0;
#X connect 45 0 19 0;
#X connect 45 0 20 0;
#X connect 45 0 21 0;
#X connect 45 0 22 0;
#X connect 45 0 23 0;
#X connect 47 0 46 0;
#X connect 48 0 47 0;
#X coords 0 -1 1 1 75 75 2 100 100;
#X restore -113 188 pd snap;
#X text 74 -61 1280 x 800;
#X msg -100 -73 1.2;
#X msg -100 -93 1;
#X connect 20 0 14 0;
#X connect 21 0 14 0;
