#N canvas 1 77 450 300 10;
#N canvas 19 81 629 506 ext 0;
#X obj -302 -80 adc~;
#X obj -303 174 lop~;
#X obj -169 173 hip~;
#X obj -231 173 lop~;
#X obj -232 146 hip~;
#X floatatom -133 -25 5 0 0 0 - - -;
#X floatatom -211 -25 5 0 0 0 - - -;
#X floatatom -148 106 5 0 0 0 - - -;
#X obj -148 82 +;
#X obj -211 82 -;
#X floatatom -211 106 5 0 0 0 - - -;
#X obj -287 -28 dbtorms;
#X obj -302 -3 *~;
#X obj -303 267 env~;
#X obj 142 -1 prvu~;
#X obj 131 118 vu 13 120 empty hp -1 -8 0 10 -66577 -1 1 0;
#X obj 108 -45 prvu~;
#X obj 101 118 vu 13 120 empty lp -1 -8 0 10 -66577 -1 0 0;
#X obj 125 -23 prvu~;
#X obj 182 113 vsl 15 128 0 127 0 0 empty empty empty 0 -9 0 10 -262144
-1 -1 0 1;
#X obj -231 267 env~;
#X obj -169 267 env~;
#X obj -102 198 env~;
#X floatatom 218 202 7 0 0 0 - - -;
#X obj 203 120 nbx 5 15 -1e+37 1e+37 0 1 empty empty band 0 -8 0 10
-262144 -1 -1 10000 256;
#X obj 203 154 nbx 5 15 -1e+37 1e+37 0 1 empty empty width 0 -8 0 10
-262144 -1 -1 5000 256;
#X obj 100 242 vsl 15 50 0 2 0 1 empty empty empty 0 -9 0 10 -204800
-1 -1 1600 1;
#X obj 115 242 vsl 15 50 0 2 0 1 empty empty empty 0 -9 0 10 -204800
-1 -1 400 1;
#X obj 130 242 vsl 15 50 0 2 0 1 empty empty empty 0 -9 0 10 -204800
-1 -1 4800 1;
#X obj -303 210 *~;
#X obj -231 210 *~;
#X obj -169 209 *~;
#X obj 116 118 vu 13 120 empty lp -1 -8 0 10 -66577 -1 0 0;
#X obj -303 305 s \$0-lp;
#X obj -231 305 s \$0-bp;
#X obj -169 305 s \$0-hp;
#X floatatom 220 231 5 0 0 0 lp - -;
#X floatatom 220 250 5 0 0 0 bp - -;
#X floatatom 221 269 5 0 0 0 hp - -;
#X connect 0 0 12 0;
#X connect 1 0 16 0;
#X connect 1 0 29 0;
#X connect 2 0 14 0;
#X connect 2 0 31 0;
#X connect 3 0 18 0;
#X connect 3 0 30 0;
#X connect 4 0 3 0;
#X connect 5 0 8 1;
#X connect 5 0 9 1;
#X connect 6 0 9 0;
#X connect 6 0 8 0;
#X connect 7 0 3 1;
#X connect 7 0 2 1;
#X connect 8 0 7 0;
#X connect 9 0 10 0;
#X connect 10 0 4 1;
#X connect 10 0 1 1;
#X connect 11 0 12 1;
#X connect 12 0 1 0;
#X connect 12 0 4 0;
#X connect 12 0 2 0;
#X connect 12 0 22 0;
#X connect 13 0 33 0;
#X connect 13 0 36 0;
#X connect 14 0 15 0;
#X connect 16 0 17 0;
#X connect 18 0 32 0;
#X connect 19 0 11 0;
#X connect 20 0 34 0;
#X connect 20 0 37 0;
#X connect 21 0 35 0;
#X connect 21 0 38 0;
#X connect 22 0 23 0;
#X connect 24 0 6 0;
#X connect 25 0 5 0;
#X connect 26 0 29 1;
#X connect 27 0 30 1;
#X connect 28 0 31 1;
#X connect 29 0 13 0;
#X connect 30 0 20 0;
#X connect 31 0 21 0;
#X coords 0 -1 1 1 179 195 2 100 100;
#X restore 39 -195 pd ext;
