#N canvas 512 80 498 484 10;
#X obj 25 202 msgfile;
#X obj 25 -26 loadbang;
#X msg 194 176 goto \$1;
#X msg 25 153 read cip.txt;
#X obj 25 245 print;
#X obj 194 70 bng 15 250 50 0 empty empty empty 17 7 0 10 -262144 -1
-1;
#X msg 115 152 bang;
#X obj 115 126 del 200;
#N canvas 95 152 450 300 gemwin 0;
#X obj 132 136 gemwin;
#X obj 67 89 outlet;
#X obj 67 10 inlet;
#X obj 67 41 route create;
#X msg 67 70 set destroy;
#X msg 142 68 set create;
#X msg 198 112 destroy;
#X msg 132 112 create \, 1;
#X connect 2 0 3 0;
#X connect 3 0 4 0;
#X connect 3 0 7 0;
#X connect 3 1 5 0;
#X connect 3 1 6 0;
#X connect 4 0 1 0;
#X connect 5 0 1 0;
#X connect 6 0 0 0;
#X connect 7 0 0 0;
#X restore 128 -19 pd gemwin;
#X msg 128 -38 destroy;
#X obj 290 -20 gemhead;
#X floatatom 327 276 5 0 100 1 size - -;
#X obj 300 45 openpanel;
#X obj 300 28 bng 15 250 50 0 empty empty empty 0 -6 0 8 -262144 -1
-1;
#X msg 316 227 alias \$1;
#X obj 316 209 tgl 15 0 empty empty empty 0 -6 0 8 -262144 -1 -1 1
1;
#X obj 289 180 translateXYZ;
#X floatatom 394 -16 5 -10 10 0 - - -;
#X floatatom 353 -21 3 -3.5 3.5 0 - - -;
#X obj 290 297 text2d;
#X obj 194 18 tgl 15 0 empty empty empty 17 7 0 10 -262144 -1 -1 1
1;
#X floatatom 378 -42 5 -10 10 0 - - -;
#X obj 194 93 random 7;
#X obj 194 115 + 1;
#X floatatom 194 138 5 0 0 0 - - -;
#X msg 373 46 justify center base;
#X msg 329 252 justify left base;
#X msg 388 223 justify right base;
#X obj 394 307 random 10;
#X obj 354 345 + 15;
#X obj 354 393 line;
#X obj 354 367 pack 0 500;
#X obj 194 -14 random 2400;
#X obj 194 45 metro 1000;
#X floatatom 219 -38 5 0 0 0 - - -;
#X obj 433 -10 random 7;
#X obj 433 21 - 3;
#X obj 132 253 change;
#X floatatom 132 305 5 0 0 0 - - -;
#X msg 300 72 set font \$1;
#X msg 300 115 font /home/oscar/Documentos/puredata-set/9.patches/0-ptch_osantis/live-set/codeispoetry/ttf-dejavu/DejaVuSerif.ttf
;
#X obj 300 93 t b a;
#X obj 201 237 color 1 0 0;
#X obj 197 391 pack 1 2 3;
#X msg 244 206 \$1 \$2 \$3;
#X floatatom 197 329 5 0 1 0 - - -;
#X floatatom 237 329 5 0 1 0 - - -;
#X floatatom 277 329 5 0 1 0 - - -;
#X obj 220 359 bng 15 250 50 0 empty empty empty 17 7 0 10 -262144
-1 -1;
#X obj 33 342 gemhead 10;
#X obj 33 385 colorRGB;
#X floatatom 109 342 5 0 1 0 - - -;
#X floatatom 110 365 5 0 1 0 - - -;
#X floatatom 110 387 5 0 1 0 - - -;
#X obj 33 293 tgl 15 0 empty empty empty 17 7 0 10 -262144 -1 -1 1
1;
#X floatatom 81 289 5 0 0 0 - - -;
#X obj 50 317 square 4;
#X connect 0 0 4 0;
#X connect 0 0 19 0;
#X connect 1 0 3 0;
#X connect 1 0 25 0;
#X connect 1 0 40 0;
#X connect 2 0 0 0;
#X connect 3 0 0 0;
#X connect 5 0 7 0;
#X connect 5 0 22 0;
#X connect 5 0 35 0;
#X connect 6 0 0 0;
#X connect 6 0 28 0;
#X connect 7 0 6 0;
#X connect 8 0 9 0;
#X connect 9 0 8 0;
#X connect 10 0 16 0;
#X connect 11 0 19 1;
#X connect 12 0 39 0;
#X connect 13 0 12 0;
#X connect 14 0 19 0;
#X connect 15 0 14 0;
#X connect 16 0 42 0;
#X connect 17 0 16 3;
#X connect 18 0 16 1;
#X connect 20 0 33 0;
#X connect 21 0 16 2;
#X connect 22 0 23 0;
#X connect 23 0 24 0;
#X connect 24 0 2 0;
#X connect 24 0 37 0;
#X connect 25 0 19 0;
#X connect 26 0 19 0;
#X connect 27 0 19 0;
#X connect 28 0 29 0;
#X connect 29 0 31 0;
#X connect 30 0 11 0;
#X connect 31 0 30 0;
#X connect 32 0 33 1;
#X connect 33 0 5 0;
#X connect 33 0 32 0;
#X connect 34 0 32 1;
#X connect 35 0 36 0;
#X connect 36 0 21 0;
#X connect 37 0 38 0;
#X connect 39 0 41 0;
#X connect 40 0 19 0;
#X connect 41 0 40 0;
#X connect 41 1 40 0;
#X connect 42 0 19 0;
#X connect 43 0 44 0;
#X connect 44 0 42 1;
#X connect 45 0 43 0;
#X connect 46 0 48 0;
#X connect 46 0 43 1;
#X connect 47 0 48 0;
#X connect 47 0 43 2;
#X connect 48 0 43 0;
#X connect 49 0 50 0;
#X connect 50 0 56 0;
#X connect 51 0 50 1;
#X connect 52 0 50 2;
#X connect 53 0 50 3;
#X connect 54 0 49 0;
#X connect 55 0 56 1;
