#N canvas 81 337 450 405 10;
#X obj 57 44 gemhead 2;
#X obj 134 45 gemhead 3;
#X floatatom 93 228 5 0 0 0 - - -, f 5;
#X floatatom 142 232 5 0 0 0 - - -, f 5;
#X obj 83 154 translate;
#X floatatom 177 81 5 0 0 0 - - -, f 5;
#X floatatom 230 82 5 0 0 0 - - -, f 5;
#X obj 230 104 t b f;
#X floatatom 280 82 5 0 0 0 - - -, f 5;
#X obj 280 104 t b f;
#X msg 167 261 draw fill;
#X obj 57 86 color 1 0 1;
#N canvas 0 50 454 304 gemwin 0;
#X obj 132 136 gemwin;
#X obj 67 89 outlet;
#X obj 67 10 inlet;
#X obj 67 41 route create;
#X msg 67 70 set destroy;
#X msg 182 68 set create;
#X msg 132 112 create \, 1;
#X msg 238 112 destroy;
#N canvas 87 154 247 179 Gem.init 0;
#X obj 59 46 loadbang;
#X msg 118 81 reset;
#X obj 118 113 outlet;
#X obj 59 65 t b b;
#X connect 0 0 3 0;
#X connect 1 0 2 0;
#X connect 3 1 1 0;
#X restore 289 80 pd Gem.init;
#X connect 2 0 3 0;
#X connect 3 0 4 0;
#X connect 3 0 6 0;
#X connect 3 1 5 0;
#X connect 3 1 7 0;
#X connect 4 0 1 0;
#X connect 5 0 1 0;
#X connect 6 0 0 0;
#X connect 7 0 0 0;
#X connect 8 0 0 0;
#X restore 342 246 pd gemwin;
#X msg 342 222 destroy;
#X obj 179 137 pack \$1 \$2 \$3;
#X msg 256 182 set \$1 \$2 \$3;
#X msg 232 221 0.16 0.45 0.45;
#X floatatom 125 121 5 0 0 0 - - -, f 5;
#X obj 57 257 rectangle 1 2;
#X connect 0 0 11 0;
#X connect 2 0 18 1;
#X connect 3 0 18 2;
#X connect 4 0 18 0;
#X connect 5 0 14 0;
#X connect 6 0 7 0;
#X connect 7 0 5 0;
#X connect 7 1 14 1;
#X connect 8 0 9 0;
#X connect 9 0 5 0;
#X connect 9 1 14 2;
#X connect 10 0 18 0;
#X connect 11 0 4 0;
#X connect 12 0 13 0;
#X connect 13 0 12 0;
#X connect 14 0 15 0;
#X connect 15 0 16 0;
#X connect 16 0 4 2;
#X connect 17 0 4 1;
